# xmcd
#
# Track frame offsets:
#	150
#	15781
#	36120
#	63106
#	81347
#	102361
#	130380
#	154750
#	186934
#	216186
#	240231
#	273068
#	307101
#
# Disc length: 4356 seconds
#
# Revision: 0
# Processed by: cddbd v1.5.2PL0 Copyright (c) Steve Scherf et al.
# Submitted via: EZCDAudioConverter 2.1.7.1
#
DISCID=a311020d
DTITLE=Eddie Palmieri - El Virtuoso 2/2
DYEAR=1900
DGENRE=
TTITLE0=Ay Que Rico
TTITLE1=Palo De Mango
TTITLE2=Justicia
TTITLE3=La Malanga
TTITLE4=Pa' Huelé
TTITLE5=Chocolate Ice Cream
TTITLE6=Revolt/La Libertad Logico
TTITLE7=Vámonos Pa'l Monte
TTITLE8=Nada De Ti
TTITLE9=Una Rosa Española
TTITLE10=El Día Que Me Quieras
TTITLE11=Palo Pa' Rumba
TTITLE12=La Verdad
EXTD=
EXTT0=
EXTT1=
EXTT2=
EXTT3=
EXTT4=
EXTT5=
EXTT6=
EXTT7=
EXTT8=
EXTT9=
EXTT10=
EXTT11=
EXTT12=
PLAYORDER=
